<svg width="1920" height="1080" viewBox="0 0 1920 1080" fill="none" xmlns="http://www.w3.org/2000/svg">
<g clip-path="url(#clip0_8_42)">
<path d="M696.4 1490.84C695.591 1268.99 972.271 989.396 1178.91 959.376C1407.13 926.258 1646.04 1405.14 1631.45 1484.33C1616.87 1563.53 1221.58 1213.13 1085.08 1370.9C933.601 1546.04 1124.01 1876.44 1037.92 1914.15C953.217 1951.27 697.348 1747.26 696.4 1490.84Z" stroke="#E6F0FF" stroke-width="5" stroke-miterlimit="10"/>
<path d="M642.921 1452.12C613.273 1208.66 962.042 894.234 1199.15 872.202C1467.75 847.312 1679.26 1395.32 1688.75 1489.31C1696.97 1570.32 1261.29 1265.22 1083.86 1434.2C891.054 1617.75 1026.63 1936.61 961.789 1944.38C892.247 1952.64 677.947 1737.67 642.921 1452.12Z" stroke="#E6F0FF" stroke-width="5" stroke-miterlimit="10"/>
<path d="M589.497 1413.37C530.93 1148.76 951.854 799.259 1219.34 785.059C1528.65 768.484 1709.49 1381.89 1746.09 1494.27C1772.52 1576.06 1301.46 1317.51 1082.5 1497.52C848.971 1689.53 930.208 2005.18 886.027 1974.4C832.743 1963.15 659.236 1728.79 589.497 1413.37Z" stroke="#E6F0FF" stroke-width="5" stroke-miterlimit="10"/>
<path d="M535.859 1374.73C448.984 1088.83 941.542 704.556 1239.51 698.129C1589.13 690.377 1781.37 1353.9 1803.37 1499.46C1817.13 1590.65 1341.74 1370.23 1081.27 1560.96C807.175 1761.7 833.328 2069.7 810.141 2004.69C772.476 1969.11 640.802 1719.67 535.859 1374.73Z" stroke="#E6F0FF" stroke-width="5" stroke-miterlimit="10"/>
<path d="M482.532 1335.92C367.564 1028.73 931.498 609.836 1259.82 610.705C1649.98 611.708 1810.82 1332.39 1860.73 1504.19C1888.68 1600.63 1382.3 1422.58 1080.11 1624.01C765.406 1833.44 752.817 2131.85 734.282 2034.55C722.366 1972.25 622.686 1710.51 482.532 1335.92Z" stroke="#E6F0FF" stroke-width="5" stroke-miterlimit="10"/>
<path d="M429.085 1297.26C286.254 968.581 921.384 515.238 1280 523.567C1710.75 533.511 1785.14 1343.97 1918.31 1509.08C1987.22 1594.69 1423.12 1475.27 1079.04 1687.24C724.226 1905.95 654.368 2199.3 658.623 2064.51C661.02 1980.78 604.762 1701.31 429.085 1297.26Z" stroke="#E6F0FF" stroke-width="5" stroke-miterlimit="10"/>
<path d="M375.659 1258.51C204.995 908.4 911.041 420.837 1300.22 436.343C1771.5 455.392 1807.85 1333.84 1975.37 1514.13C2057.34 1602.32 1463.54 1528.12 1077.54 1750.56C682.233 1978.38 555.165 2264.97 582.465 2094.69C599.614 1987.88 586.942 1692.06 375.659 1258.51Z" stroke="#E6F0FF" stroke-width="5" stroke-miterlimit="10"/>
<path d="M322.172 1219.78C123.831 848.146 901.09 326.401 1320.45 349.159C1832.18 377.157 1830.1 1324.72 2032.7 1519.07C2127.69 1610.22 1504.1 1581.08 1076.3 1813.86C640.799 2050.81 456.546 2329.73 506.588 2124.76C538.354 1994.4 569.208 1682.6 322.172 1219.78Z" stroke="#E6F0FF" stroke-width="5" stroke-miterlimit="10"/>
<path d="M268.694 1181.06C42.728 787.877 890.842 231.81 1340.69 261.989C1892.94 299.04 1852.33 1316.27 2090.1 1523.99C2198.19 1618.39 1544.85 1634.02 1075.1 1877.09C599.32 2123.29 358.343 2394.13 430.72 2154.84C477.294 2000.54 551.626 1673.28 268.694 1181.06Z" stroke="#E6F0FF" stroke-width="5" stroke-miterlimit="10"/>
<path d="M215.266 1142.31C-38.2669 727.191 880.63 137.397 1360.87 174.843C1953.52 220.873 1874.21 1308.55 2147.34 1529C2268.6 1626.89 1585.45 1687.04 1073.79 1940.37C557.766 2195.87 260.302 2458.56 354.716 2184.93C416.359 2006.54 534.085 1663.78 215.266 1142.31Z" stroke="#E6F0FF" stroke-width="5" stroke-miterlimit="10"/>
<path d="M161.786 1103.59C-119.386 667.134 870.358 42.8827 1381.11 87.6691C2014.34 142.99 1896.35 1301.38 2204.69 1533.95C2339.16 1635.51 1626.16 1740.14 1072.56 2003.68C516.241 2268.51 162.401 2522.64 278.846 2215.01C355.497 2012.43 516.566 1654.21 161.786 1103.59Z" stroke="#E6F0FF" stroke-width="5" stroke-miterlimit="10"/>
<path d="M108.302 1064.87C-200.42 606.746 860.263 -51.3219 1401.35 0.492695C2075.04 65.0308 1918.21 1294.1 2261.87 1538.99C2409.69 1644.21 1666.88 1793.15 1071.14 2067.02C474.609 2341.21 64.5041 2586.85 202.817 2245.17C294.714 2018.33 499.044 1644.64 108.302 1064.87Z" stroke="#E6F0FF" stroke-width="5" stroke-miterlimit="10"/>
<path d="M54.8778 1026.12C-281.426 546.284 850.292 -145.794 1421.54 -86.6452C2135.75 -12.92 1940.26 1287.27 2319.35 1543.94C2480.5 1653.04 1707.52 1846.37 1070.02 2130.27C432.517 2414.18 -33.0736 2650.89 126.898 2275.29C233.96 2024.16 481.633 1635.01 54.8778 1026.12Z" stroke="#E6F0FF" stroke-width="5" stroke-miterlimit="10"/>
<path d="M1.39831 987.403C-362.434 485.818 839.851 -240.001 1441.75 -173.87C2196.66 -90.9959 1962.58 1280.55 2376.67 1548.84C2551.26 1661.89 1748.17 1899.5 1068.76 2193.53C391.699 2486.48 -130.624 2714.98 51.1027 2305.26C173.254 2029.96 464.167 1625.41 1.39831 987.403Z" stroke="#E6F0FF" stroke-width="5" stroke-miterlimit="10"/>
<path d="M-52.0861 948.672C-443.448 425.34 829.521 -333.178 1462.07 -260.899C2257.07 -167.198 1984.56 1274.43 2434.04 1553.96C2622.13 1670.94 1788.95 1952.82 1067.58 2256.93C350.29 2559.31 -228.141 2779.24 -24.7336 2335.51C112.544 2035.75 446.74 1615.63 -52.0861 948.672Z" stroke="#E6F0FF" stroke-width="5" stroke-miterlimit="10"/>
<path d="M-105.512 909.928C-524.402 364.848 819.311 -427.582 1482.12 -348.162C2317.78 -245.498 2006.26 1268.08 2491.2 1558.82C2692.78 1679.86 1829.44 2005.91 1066.03 2320.15C308.478 2632.06 -325.936 2843.27 -100.951 2365.59C51.8407 2041.55 429.297 1605.96 -105.512 909.928Z" stroke="#E6F0FF" stroke-width="5" stroke-miterlimit="10"/>
<path d="M-158.993 871.207C-605.511 304.091 809.121 -522.074 1502.41 -435.367C2378.11 -323.379 2028.74 1261.62 2548.59 1563.74C2763.91 1688.98 1870.79 2060.37 1064.93 2383.32C267.703 2705.99 -423.28 2907.23 -176.614 2395.55C-8.81406 2047.31 411.873 1596.19 -158.993 871.207Z" stroke="#E6F0FF" stroke-width="5" stroke-miterlimit="10"/>
<path d="M-212.469 832.489C-685.32 242.934 798.935 -616.565 1522.65 -522.539C2439.13 -401.649 2050.96 1255.45 2605.97 1568.75C2834.67 1697.84 1911.33 2113.29 1063.7 2446.63C226.093 2778.48 -520.723 2971.26 -252.562 2425.61C-69.4638 2053.08 395.79 1585.38 -212.469 832.489Z" stroke="#E6F0FF" stroke-width="5" stroke-miterlimit="10"/>
<path d="M-265.904 793.73C-766.544 182.578 788.745 -710.932 1542.88 -609.721C2499.78 -479.8 2073.16 1249.35 2663.3 1573.69C2905.59 1706.86 1951.79 2166.31 1062.43 2509.87C184.471 2850.95 -618.2 3035.36 -328.44 2455.68C-129.955 2058.53 378.078 1575.84 -265.904 793.73Z" stroke="#E6F0FF" stroke-width="5" stroke-miterlimit="10"/>
<path d="M-319.383 755.01C-847.759 122.232 778.527 -805.475 1563.07 -696.865C2560.33 -557.8 2095.47 1243.33 2720.6 1578.67C2976.55 1715.94 1992.66 2219.45 1061.33 2573.04C142.864 2923.08 -716.542 3098.79 -404.204 2485.7C-191.501 2064.19 360.323 1566.33 -319.383 755.01Z" stroke="#E6F0FF" stroke-width="5" stroke-miterlimit="10"/>
<path d="M-372.861 716.296C-929.131 61.9803 768.301 -900.147 1583.31 -784.032C2621.18 -635.975 2117.79 1237.32 2777.74 1583.74C3047.39 1725.17 2032.87 2272.29 1059.74 2636.56C101.193 2995.95 -813.561 3163.2 -480.28 2515.9C-251.713 2070.13 342.888 1556.79 -372.861 716.296Z" stroke="#E6F0FF" stroke-width="5" stroke-miterlimit="10"/>
<path d="M-556.182 2545.93C-311.981 2076.08 324.831 1547.24 -426.291 677.542C-1010.22 1.48688 758.095 -994.428 1603.51 -871.262C2681.93 -714.1 2140.1 1231.3 2835.23 1588.6C3397.43 1877.5 -1270.4 3919.96 -556.182 2545.93Z" stroke="#E6F0FF" stroke-width="5" stroke-miterlimit="10"/>
</g>
<defs>
<clipPath id="clip0_8_42">
<rect width="1920" height="1080" fill="white"/>
</clipPath>
</defs>
</svg>
